<svg class="icon st1" style="width: 1em; height: 1em;vertical-align: middle;fill: currentColor;overflow: hidden;" viewBox="0 0 1024 1024" version="1.1" xmlns="http://www.w3.org/2000/svg">
    <style type="text/css">
        .st0{fill:#fff;stroke:#8B959E;stroke-linecap:square;stroke-miterlimit:10;}
        .st1{fill:#8B959E;}
    </style>
    <path class="st1" d="M411.312 736l384-386.336-22.624-23.808L400 697.968 219.312 516.992l-22.624 24.816 192 194.192z" fill="" />
    <path class="st1" d="M511.984 1024h0.032c136.768 0 265.328-53.28 362.032-149.968S1024 648.752 1023.984 511.984c0-136.768-53.248-265.344-149.952-362.032C777.344 53.264 648.784 0 512.016 0h-0.032C375.216 0 246.656 53.264 149.952 149.968 53.264 246.672 0 375.248 0.016 512.016c0 136.768 53.248 265.344 149.952 362.032C246.656 970.736 375.216 1024 511.984 1024zM172.592 172.592C263.232 81.936 383.776 32 512.016 32h0.032c128.192 0 248.72 49.936 339.376 140.576 90.656 90.656 140.576 211.2 140.56 339.408 0 128.224-49.92 248.768-140.56 339.424S640.24 992 512.016 992h-0.064c-128.192 0-248.72-49.936-339.376-140.576C81.936 760.768 32 640.24 32.016 512.016 32 383.792 81.936 263.248 172.592 172.592z" fill="" />
</svg>