<?xml version="1.0" encoding="UTF-8" standalone="no"?>
<!DOCTYPE svg PUBLIC "-//W3C//DTD SVG 1.1//EN" "http://www.w3.org/Graphics/SVG/1.1/DTD/svg11.dtd">
<svg version="1.1" xmlns="http://www.w3.org/2000/svg" xmlns:xlink="http://www.w3.org/1999/xlink" preserveAspectRatio="xMidYMid meet" viewBox="0 0 60 60" width="60" height="60"><defs><path d="M59.78 30.03C59.78 46.57 46.44 60 30 60C13.56 60 0.22 46.57 0.22 30.03C0.22 13.48 13.56 0.05 30 0.05C46.44 0.05 59.78 13.48 59.78 30.03Z" id="d2ziM90wBq"></path><path d="M34.77 40.13C34.9 40.37 35.21 40.46 35.45 40.33C35.61 40.24 35.72 40.07 35.71 39.89C35.71 39.6 35.71 38.16 35.72 35.57C37.23 35.57 38.07 35.57 38.24 35.57C39.21 35.57 40 34.78 40 33.81C40 33.81 40 33.81 40 33.81C40 32.76 40 24.38 40 23.33C40 22.36 39.21 21.57 38.24 21.57C38.24 21.57 38.24 21.57 38.24 21.57C36.79 21.57 25.21 21.57 23.76 21.57C22.79 21.57 22 22.36 22 23.33C22 24.38 22 32.76 22 33.81C22 34.78 22.79 35.57 23.76 35.57C24.19 35.57 26.36 35.57 30.26 35.57C32.96 38.31 34.47 39.83 34.77 40.13Z" id="g2JW1AghUu"></path></defs><g><g><g><use xlink:href="#d2ziM90wBq" opacity="1" fill="#a79779" fill-opacity="1"></use></g><g><use xlink:href="#g2JW1AghUu" opacity="1" fill="#000000" fill-opacity="0"></use><g><use xlink:href="#g2JW1AghUu" opacity="1" fill-opacity="0" stroke="#ffffff" stroke-width="1.2" stroke-opacity="1"></use></g></g></g></g></svg>