<?xml version="1.0" encoding="utf-8"?>
<!-- Generator: Adobe Illustrator 23.0.0, SVG Export Plug-In . SVG Version: 6.00 Build 0)  -->
<svg version="1.1" id="Слой_1" xmlns="http://www.w3.org/2000/svg" xmlns:xlink="http://www.w3.org/1999/xlink" x="0px" y="0px"
	 viewBox="0 0 61 61" style="enable-background:new 0 0 61 61;" xml:space="preserve">
<style type="text/css">
	.st0{fill:#fff;stroke:#8B959E;stroke-linecap:square;stroke-miterlimit:10;}
	.st1{fill:#8B959E;}
</style>
<g>
	<g id="Button_Copy" transform="translate(1302 91)">
		<path id="Background" class="st0" d="M-1271.5-90.5L-1271.5-90.5c16.6,0,30,13.4,30,30l0,0c0,16.6-13.4,30-30,30l0,0
			c-16.6,0-30-13.4-30-30l0,0C-1301.5-77.1-1288.1-90.5-1271.5-90.5z"/>
	</g>
	<g>
		<path class="st1" d="M39.3,39.3L39.3,39.3c-0.2,0.2-0.6,0.2-0.8,0L21.7,22.5c-0.2-0.2-0.2-0.6,0-0.8l0,0c0.2-0.2,0.6-0.2,0.8,0
			l16.8,16.8C39.5,38.7,39.5,39.1,39.3,39.3z"/>
		<path class="st1" d="M21.7,39.3L21.7,39.3c-0.2-0.2-0.2-0.6,0-0.8l16.8-16.8c0.2-0.2,0.6-0.2,0.8,0v0c0.2,0.2,0.2,0.6,0,0.8
			L22.5,39.3C22.3,39.5,21.9,39.5,21.7,39.3z"/>
	</g>
</g>
</svg>
