<svg xmlns="http://www.w3.org/2000/svg" width="4.316" height="18.93" viewBox="0 0 4.316 18.93"><defs><style>.a{fill:#a79779;}</style></defs><path class="a" d="M16.846,4.316a2.125,2.125,0,0,1-2.084-2.158,2.085,2.085,0,1,1,4.168,0A2.124,2.124,0,0,1,16.846,4.316Zm-7.381,0A2.118,2.118,0,0,1,7.394,2.158a2.072,2.072,0,1,1,4.141,0A2.118,2.118,0,0,1,9.465,4.316Zm-7.381,0A2.125,2.125,0,0,1,0,2.158,2.125,2.125,0,0,1,2.084,0,2.124,2.124,0,0,1,4.168,2.158,2.124,2.124,0,0,1,2.084,4.316Z" transform="translate(0 18.93) rotate(-90)"/></svg>