<?xml version="1.0" encoding="UTF-8" standalone="no"?>
<!DOCTYPE svg PUBLIC "-//W3C//DTD SVG 1.1//EN" "http://www.w3.org/Graphics/SVG/1.1/DTD/svg11.dtd">
<svg version="1.1" xmlns="http://www.w3.org/2000/svg" xmlns:xlink="http://www.w3.org/1999/xlink" preserveAspectRatio="xMidYMid meet" viewBox="0 0 60 60" width="60" height="60"><defs><path d="M59.56 30.03C59.56 46.57 46.22 60 29.78 60C13.34 60 0 46.57 0 30.03C0 13.48 13.34 0.05 29.78 0.05C46.22 0.05 59.56 13.48 59.56 30.03Z" id="bjooIelAF"></path><path d="M38.68 31.41C38.4 30.95 38.2 30.44 38.04 29.85C37.72 28.67 37.59 27.15 37.53 25.07C37.41 20.93 34.23 19.21 33.24 18.82C32.93 17.72 31.94 16.95 30.79 16.95C29.64 16.95 28.66 17.71 28.34 18.8C24.07 20.43 24.03 25.03 24.03 25.08C24.03 30.88 21.99 32.57 21.94 32.61C20.62 33.79 20.56 35.43 20.56 35.58C20.81 37.45 21.99 38.12 23.01 38.12C24.55 38.12 36.87 38.12 38.41 38.12C39.19 38.12 39.82 37.88 40.28 37.41C41.01 36.66 41.01 35.61 41.01 35.57C41.01 33.67 39.71 32.64 39.68 32.61C39.68 32.61 39.68 32.61 39.68 32.61C40.68 33.78 40.68 33.78 39.68 32.61C38.18 30.87 38.95 31.85 38.68 31.41ZM38.41 37.14C37.39 37.14 32.27 37.14 23.07 37.14L23.01 37.63C23.01 37.34 23.01 37.18 23.01 37.14C22.63 37.14 21.72 36.98 21.52 35.53C21.52 35.52 21.59 34.24 22.56 33.37C22.66 33.29 25 31.44 25 25.08C25 25.04 25.04 20.95 28.87 19.65C29.06 19.6 29.2 19.45 29.23 19.26C29.36 18.49 30.02 17.93 30.79 17.93C31.56 17.93 32.22 18.5 32.35 19.27C32.38 19.45 32.51 19.6 32.68 19.65C32.84 19.7 36.56 20.93 36.56 25.08C36.55 25.33 36.55 31.17 39.06 33.37C39.1 33.41 40.03 34.17 40.03 35.58C40.03 35.58 40.03 36.28 39.58 36.73C39.58 36.73 39.58 36.73 39.58 36.73C39.14 37 38.75 37.14 38.41 37.14ZM33.8 38.99C33.44 40.14 32.2 40.95 30.78 40.95C29.36 40.95 28.12 40.14 27.76 38.99C27.68 38.73 27.43 38.61 27.2 38.69C26.97 38.78 26.86 39.06 26.93 39.31C27.42 40.85 28.99 41.93 30.78 41.93C32.56 41.93 34.14 40.85 34.62 39.31C34.7 39.05 34.58 38.78 34.35 38.69C34.35 38.69 34.35 38.69 34.35 38.69C34.04 38.72 33.85 38.82 33.8 38.99Z" id="e3tw5SJvV"></path></defs><g><g><g><use xlink:href="#bjooIelAF" opacity="1" fill="#a79779" fill-opacity="1"></use></g><g><use xlink:href="#e3tw5SJvV" opacity="1" fill="#ffffff" fill-opacity="1"></use><g><use xlink:href="#e3tw5SJvV" opacity="1" fill-opacity="0" stroke="#000000" stroke-width="1" stroke-opacity="0"></use></g></g></g></g></svg>