<?xml version="1.0" encoding="UTF-8"?>
<svg width="11px" height="11px" viewBox="0 0 11 11" version="1.1" xmlns="http://www.w3.org/2000/svg" xmlns:xlink="http://www.w3.org/1999/xlink">
    <!-- Generator: Sketch 51.2 (57519) - http://www.bohemiancoding.com/sketch -->
    <title>icon_pdf</title>
    <desc>Created with Sketch.</desc>
    <defs></defs>
    <g id="ROLZO" stroke="none" stroke-width="1" fill="none" fill-rule="evenodd">
        <g id="My-Bookings_Booking_Pending-Copy-6" transform="translate(-912.000000, -779.000000)" fill="#A79779">
            <path d="M920.595572,785.043836 L921.868849,785.043836 L921.868849,785.365412 L921.002634,785.365412 L921.002634,785.864796 L921.793646,785.864796 L921.793646,786.173482 L921.002634,786.173482 L921.002634,786.906859 L920.595572,786.906859 L920.595572,785.043836 Z M919.358516,786.583962 L919.071502,786.583962 L919.071502,785.365412 L919.358516,785.365412 C919.716938,785.365412 919.919089,785.579575 919.919089,785.969564 C919.919089,786.372442 919.722457,786.583962 919.358516,786.583962 Z M919.407157,785.043836 L918.66444,785.043836 L918.66444,786.906859 L919.407157,786.906859 C919.990498,786.906859 920.334086,786.559505 920.334086,785.968242 C920.334086,785.376979 919.990498,785.043836 919.407157,785.043836 Z M917.641609,786.014842 L917.367015,786.014842 L917.367015,785.352522 L917.642989,785.352522 C917.876188,785.352522 918.01107,785.471171 918.01107,785.683021 C918.01107,785.895863 917.874808,786.014842 917.641609,786.014842 Z M917.750964,785.043836 L916.959952,785.043836 L916.959952,786.906859 L917.367015,786.906859 L917.367015,786.319232 L917.730611,786.319232 C918.140433,786.319232 918.424687,786.063756 918.424687,785.681699 C918.424687,785.29832 918.149748,785.043836 917.750964,785.043836 Z M922.586038,787.341466 C922.586038,787.596611 922.369398,787.804495 922.103083,787.804495 L916.583592,787.804495 C916.317277,787.804495 916.100637,787.596611 916.100637,787.341466 L916.100637,784.697473 C916.100637,784.442658 916.317277,784.234775 916.583592,784.234775 L922.103083,784.234775 C922.369398,784.234775 922.586038,784.442658 922.586038,784.697473 L922.586038,787.341466 Z M920.969172,789.140702 C920.969172,789.395848 920.752532,789.603732 920.486217,789.603732 L912.896917,789.603732 C912.630602,789.603732 912.413962,789.395848 912.413962,789.140702 L912.413962,779.858967 C912.413962,779.604152 912.630602,779.396268 912.896917,779.396268 L917.734061,779.396268 L917.734061,781.994321 C917.734061,782.285822 917.981748,782.52312 918.28601,782.52312 L920.969172,782.52312 L920.969172,783.838506 L916.583592,783.838506 C916.089253,783.838506 915.686675,784.223868 915.686675,784.697473 L915.686675,787.341466 C915.686675,787.815401 916.089253,788.200763 916.583592,788.200763 L920.969172,788.200763 L920.969172,789.140702 Z M920.679399,782.126852 L918.28601,782.126852 C918.209772,782.126852 918.148023,782.067362 918.148023,781.994321 L918.148023,779.680167 L920.679399,782.126852 Z M922.103083,783.838506 L921.383134,783.838506 L921.383134,782.32482 C921.383134,782.316228 921.378995,782.308296 921.37796,782.299703 C921.37658,782.29111 921.3752,782.283508 921.372785,782.275246 C921.363816,782.241865 921.348982,782.210468 921.32311,782.18535 L918.087998,779.058498 C918.062126,779.03305 918.029009,779.019169 917.993822,779.009915 C917.985198,779.007601 917.977263,779.006279 917.968294,779.005288 C917.95898,779.003966 917.950701,779 917.941042,779 L912.896917,779 C912.402233,779 912,779.385362 912,779.858967 L912,789.140702 C912,789.614638 912.402233,790 912.896917,790 L920.486217,790 C920.980556,790 921.383134,789.614638 921.383134,789.140702 L921.383134,788.200763 L922.103083,788.200763 C922.597767,788.200763 923,787.815401 923,787.341466 L923,784.697473 C923,784.223868 922.597767,783.838506 922.103083,783.838506 Z" id="icon_pdf"></path>
        </g>
    </g>
</svg>