<?xml version="1.0" encoding="utf-8"?>
<svg width="13px" height="18px" viewBox="0 0 13 18" version="1.1" xmlns:xlink="http://www.w3.org/1999/xlink" xmlns="http://www.w3.org/2000/svg">
    <desc>Created with Lunacy</desc>
    <path d="M0 6.30157C0 2.82692 2.91556 0 6.5 0C10.0844 0 13 2.82692 13 6.30157C13 12.3603 6.97037 17.5972 6.71361 17.817L6.5 18L6.28639 17.817C6.02963 17.5972 0 12.3603 0 6.30157ZM6.5 17.1514C5.4217 16.1549 0.646764 11.4483 0.646764 6.30157C0.646764 3.1736 3.2732 0.628846 6.5 0.628846C9.72681 0.628846 12.3532 3.1736 12.3532 6.30157C12.3532 11.4483 7.5783 16.1549 6.5 17.1514ZM3.4744 5.94493C3.4744 4.32273 4.83158 3.00262 6.5 3.00262C8.16842 3.00262 9.5256 4.32273 9.5256 5.94493C9.5256 7.56713 8.16842 8.88671 6.5 8.88671C4.83158 8.88671 3.4744 7.56713 3.4744 5.94493ZM6.5 8.25787C5.18813 8.25787 4.12116 7.21993 4.12116 5.94493C4.12116 4.66941 5.18813 3.63199 6.5 3.63199C7.81187 3.63199 8.87884 4.66941 8.87884 5.94493C8.87884 7.21993 7.81187 8.25787 6.5 8.25787Z" id="icon_pin-copy-2" fill="#000000" fill-rule="evenodd" stroke="none" />
</svg>