<svg xmlns="http://www.w3.org/2000/svg" viewBox="0 0 478.09 370.05"><defs><style>.cls-1{fill:#8b959e;}</style></defs><title>Ресурс 1</title><g id="Слой_2" data-name="Слой 2"><g id="Layer_1" data-name="Layer 1"><path class="cls-1" d="M185.34,44.76V26.85a9,9,0,0,1,8.95-9H283.8a9,9,0,0,1,8.95,9V44.76a9,9,0,0,0,9,9h0a9,9,0,0,0,9-9V26.85A26.89,26.89,0,0,0,283.8,0H194.29a26.85,26.85,0,0,0-26.85,26.85V44.76a9,9,0,0,0,8.95,9h0A9,9,0,0,0,185.34,44.76Z"/><path class="cls-1" d="M408.37,65.71H69.72C31.27,65.71,0,93.82,0,128.37v179C0,342,31.27,370.05,69.72,370.05H408.37c38.45,0,69.72-28.1,69.72-62.66v-179C478.09,93.82,446.82,65.71,408.37,65.71Zm-29.88,17.9V352.15H358.57V83.61ZM338.65,352.15H122.21V83.61H338.65ZM104.75,83.61V352.15H87.29V83.61ZM19.92,307.39v-179c0-24.69,22.33-44.76,49.8-44.76h.12V352.15h-.12C42.25,352.15,19.92,332.08,19.92,307.39Zm438.25,0c0,24.69-22.33,44.76-49.8,44.76h-10V83.61h10c27.47,0,49.8,20.07,49.8,44.76Z"/></g></g></svg>