<?xml version="1.0" encoding="utf-8"?>
<!-- Generator: Adobe Illustrator 23.0.0, SVG Export Plug-In . SVG Version: 6.00 Build 0)  -->
<svg version="1.1" id="Слой_1" xmlns="http://www.w3.org/2000/svg" xmlns:xlink="http://www.w3.org/1999/xlink" x="0px" y="0px"
	 viewBox="0 0 110 110" style="enable-background:new 0 0 110 110;" xml:space="preserve">
<style type="text/css">
	.st0{fill:#fff;stroke:#8B959E;stroke-linecap:square;stroke-miterlimit:10;}
	.st1{fill:#8B959E;enable-background:new    ;}
</style>
<g>
	<path id="Background" class="st0" d="M55,0.5L55,0.5c30.1,0,54.5,24.4,54.5,54.5l0,0c0,30.1-24.4,54.5-54.5,54.5l0,0
		C24.9,109.5,0.5,85.1,0.5,55l0,0C0.5,24.9,24.9,0.5,55,0.5z"/>
	<path class="st1" d="M76.2,40.1c-0.9-0.9-2.3-0.9-3.1,0l-25,25L36.9,53.9c-0.9-0.9-2.3-0.9-3.1,0h0c-0.9,0.9-0.9,2.3,0,3.1
		l12.3,12.3l0.6,0.6c0.4,0.4,0.9,0.6,1.5,0.6c0.5,0,1.1-0.2,1.5-0.6l0.6-0.6l26-26C77.1,42.4,77.1,41,76.2,40.1z"/>
</g>
</svg>
