<?xml version="1.0" encoding="UTF-8" standalone="no"?>
<!DOCTYPE svg PUBLIC "-//W3C//DTD SVG 1.1//EN" "http://www.w3.org/Graphics/SVG/1.1/DTD/svg11.dtd">
<svg version="1.1" xmlns="http://www.w3.org/2000/svg" xmlns:xlink="http://www.w3.org/1999/xlink" preserveAspectRatio="xMidYMid meet" viewBox="0 0 70 70" width="70" height="70"><defs><path d="M35.42 1.5C36.25 1.5 36.91 1.54 37.08 1.54C37.91 1.58 38.57 1.65 38.74 1.66C39.57 1.74 40.23 1.85 40.39 1.87C41.22 1.99 41.87 2.12 42.03 2.15C42.85 2.31 43.49 2.48 43.66 2.51C44.46 2.71 45.1 2.91 45.26 2.95C46.06 3.19 46.68 3.42 46.84 3.47C47.63 3.75 48.24 4.01 48.39 4.07C49.16 4.39 49.76 4.67 49.92 4.74C50.67 5.09 51.25 5.41 51.4 5.49C52.14 5.88 52.71 6.22 52.85 6.3C53.57 6.73 54.12 7.1 54.26 7.19C54.95 7.65 55.48 8.05 55.62 8.14C56.29 8.64 56.8 9.06 56.93 9.16C57.57 9.69 58.07 10.13 58.19 10.24C58.81 10.8 59.28 11.27 59.4 11.38C59.99 11.97 60.43 12.46 60.54 12.58C61.1 13.2 61.52 13.71 61.63 13.84C62.16 14.48 62.55 15.01 62.66 15.14C63.15 15.81 63.52 16.36 63.61 16.5C64.08 17.19 64.42 17.76 64.5 17.9C64.93 18.61 65.24 19.2 65.33 19.34C65.72 20.07 66 20.67 66.07 20.82C66.43 21.57 66.68 22.18 66.75 22.33C67.07 23.1 67.29 23.72 67.35 23.88C67.63 24.66 67.82 25.29 67.87 25.45C68.11 26.25 68.27 26.89 68.31 27.05C68.52 27.85 68.64 28.5 68.68 28.66C68.84 29.48 68.93 30.13 68.96 30.3C69.09 31.12 69.15 31.78 69.17 31.94C69.25 32.77 69.28 33.43 69.29 33.59C69.32 34.14 69.33 34.7 69.33 35.25C69.33 35.25 69.33 35.25 69.33 35.25C69.33 36.08 69.29 36.74 69.29 36.91C69.25 37.73 69.18 38.39 69.17 38.56C69.09 39.38 68.98 40.04 68.96 40.2C68.84 41.02 68.71 41.67 68.68 41.84C68.52 42.65 68.35 43.29 68.31 43.45C68.11 44.25 67.91 44.89 67.87 45.05C67.63 45.84 67.4 46.46 67.35 46.62C67.07 47.4 66.81 48.01 66.75 48.17C66.43 48.93 66.14 49.53 66.07 49.68C65.72 50.43 65.4 51.01 65.33 51.16C64.93 51.89 64.59 52.46 64.5 52.6C64.08 53.31 63.7 53.86 63.61 54C63.15 54.69 62.75 55.22 62.66 55.36C62.16 56.02 61.73 56.53 61.63 56.66C61.1 57.3 60.65 57.79 60.54 57.92C59.99 58.53 59.51 59 59.4 59.12C58.81 59.7 58.31 60.14 58.19 60.26C57.57 60.81 57.06 61.23 56.93 61.34C56.29 61.86 55.75 62.26 55.62 62.36C54.95 62.85 54.39 63.22 54.26 63.31C53.57 63.77 52.99 64.11 52.85 64.2C52.14 64.62 51.55 64.93 51.4 65.01C50.67 65.41 50.06 65.69 49.92 65.76C49.16 66.11 48.55 66.36 48.39 66.43C47.63 66.75 47 66.97 46.84 67.03C46.06 67.31 45.42 67.49 45.26 67.55C44.46 67.79 43.82 67.94 43.66 67.99C42.85 68.19 42.19 68.32 42.03 68.35C41.22 68.51 40.56 68.61 40.39 68.63C39.57 68.76 38.91 68.82 38.74 68.84C37.91 68.92 37.25 68.95 37.08 68.96C36.53 68.99 35.97 69 35.42 69C35.41 69 35.41 69 35.41 69C34.58 69 33.92 68.96 33.75 68.96C32.92 68.92 32.26 68.85 32.09 68.84C31.26 68.76 30.6 68.66 30.44 68.63C29.61 68.51 28.96 68.38 28.8 68.35C27.98 68.19 27.34 68.02 27.17 67.99C26.37 67.79 25.73 67.59 25.57 67.55C24.77 67.31 24.15 67.08 23.99 67.03C23.2 66.75 22.59 66.49 22.44 66.43C21.67 66.11 21.07 65.83 20.91 65.76C20.16 65.41 19.58 65.09 19.43 65.01C18.69 64.62 18.12 64.28 17.98 64.2C17.26 63.77 16.71 63.4 16.57 63.31C15.88 62.85 15.35 62.45 15.21 62.36C14.54 61.86 14.03 61.44 13.9 61.34C13.26 60.81 12.76 60.37 12.64 60.26C12.02 59.7 11.55 59.23 11.43 59.12C10.84 58.53 10.4 58.04 10.29 57.92C9.73 57.3 9.31 56.79 9.2 56.66C8.67 56.02 8.28 55.49 8.17 55.36C7.68 54.69 7.31 54.14 7.22 54C6.75 53.31 6.41 52.74 6.32 52.6C5.9 51.89 5.59 51.3 5.5 51.16C5.11 50.43 4.83 49.83 4.76 49.68C4.4 48.93 4.15 48.32 4.08 48.17C3.76 47.4 3.54 46.78 3.48 46.62C3.2 45.84 3.01 45.21 2.96 45.05C2.72 44.25 2.56 43.61 2.52 43.45C2.31 42.65 2.19 42 2.15 41.84C1.99 41.02 1.9 40.37 1.87 40.2C1.74 39.38 1.68 38.72 1.66 38.56C1.58 37.73 1.55 37.07 1.54 36.91C1.51 36.36 1.5 35.8 1.5 35.25C1.5 35.25 1.5 35.25 1.5 35.25C1.5 34.42 1.54 33.76 1.54 33.59C1.58 32.77 1.65 32.11 1.66 31.94C1.74 31.12 1.85 30.46 1.87 30.3C1.99 29.48 2.12 28.83 2.15 28.66C2.31 27.85 2.48 27.21 2.52 27.05C2.72 26.25 2.92 25.61 2.96 25.45C3.2 24.66 3.43 24.04 3.48 23.88C3.76 23.1 4.02 22.49 4.08 22.33C4.4 21.57 4.69 20.97 4.76 20.82C5.11 20.07 5.43 19.49 5.5 19.34C5.9 18.61 6.24 18.04 6.32 17.9C6.75 17.19 7.13 16.64 7.22 16.5C7.68 15.81 8.08 15.28 8.17 15.14C8.67 14.48 9.1 13.97 9.2 13.84C9.73 13.2 10.18 12.71 10.29 12.58C10.84 11.97 11.32 11.5 11.43 11.38C12.02 10.8 12.52 10.36 12.64 10.24C13.26 9.69 13.77 9.27 13.9 9.16C14.54 8.64 15.08 8.24 15.21 8.14C15.88 7.65 16.44 7.28 16.57 7.19C17.26 6.73 17.84 6.39 17.98 6.3C18.69 5.88 19.28 5.57 19.43 5.49C20.16 5.09 20.77 4.81 20.91 4.74C21.67 4.39 22.28 4.14 22.44 4.07C23.2 3.75 23.83 3.53 23.99 3.47C24.77 3.19 25.41 3.01 25.57 2.95C26.37 2.71 27.01 2.56 27.17 2.51C27.98 2.31 28.64 2.18 28.8 2.15C29.61 1.99 30.27 1.89 30.44 1.87C31.26 1.74 31.92 1.68 32.09 1.66C32.92 1.58 33.58 1.55 33.75 1.54C34.3 1.51 34.86 1.5 35.41 1.5C35.42 1.5 35.42 1.5 35.42 1.5Z" id="a7pZOJb4mE"></path><path d="M50.18 25.85C50.18 25.86 50.17 25.87 50.16 25.86C50.15 25.86 50.14 25.87 50.14 25.89C50.14 25.91 50.13 25.92 50.09 25.93C50.07 25.93 50.04 25.93 50.03 25.93C50.02 25.93 50 25.94 49.99 25.94C49.97 25.94 49.96 25.96 49.95 25.98C49.95 26 49.94 26.02 49.92 26.02C49.89 26.01 49.84 26.05 49.85 26.08C49.86 26.09 49.85 26.1 49.83 26.1C49.81 26.1 49.79 26.11 49.78 26.12C49.76 26.14 49.76 26.16 49.76 26.19C49.76 26.2 49.73 26.21 49.71 26.22C49.68 26.22 49.66 26.24 49.66 26.26C49.66 26.28 49.65 26.3 49.63 26.3C49.6 26.31 49.58 26.33 49.58 26.35C49.57 26.37 49.56 26.39 49.55 26.39C49.54 26.39 49.53 26.39 49.51 26.39C49.5 26.39 49.49 26.41 49.49 26.43C49.48 26.47 49.47 26.48 49.43 26.48C49.41 26.48 49.39 26.49 49.39 26.49C49.4 26.54 49.38 26.56 49.35 26.56C49.33 26.56 49.31 26.58 49.3 26.62C49.28 26.65 49.26 26.67 49.25 26.66C49.22 26.65 49.19 26.69 49.19 26.73C49.19 26.75 49.18 26.76 49.17 26.75C49.14 26.73 49.1 26.77 49.11 26.8C49.12 26.82 49.05 26.85 49.02 26.85C49.01 26.85 49 26.86 49.01 26.87C49.01 26.92 49 26.93 48.96 26.94C48.93 26.95 48.91 26.97 48.91 26.99C48.91 27.02 48.89 27.03 48.84 27.03C48.83 27.03 48.83 27.04 48.83 27.06C48.82 27.11 48.82 27.12 48.77 27.12C48.75 27.12 48.73 27.13 48.73 27.13C48.74 27.18 48.72 27.2 48.69 27.2C48.67 27.2 48.65 27.22 48.64 27.26C48.63 27.29 48.61 27.31 48.59 27.3C48.58 27.3 48.56 27.31 48.54 27.35C48.53 27.38 48.51 27.4 48.5 27.39C48.47 27.38 48.43 27.42 48.44 27.45C48.44 27.47 48.43 27.48 48.42 27.47C48.39 27.47 48.34 27.51 48.35 27.53C48.35 27.54 48.33 27.56 48.31 27.57C48.28 27.59 48.26 27.6 48.26 27.61C48.27 27.63 48.24 27.67 48.2 27.67C48.18 27.67 48.16 27.68 48.16 27.68C48.17 27.73 48.16 27.75 48.12 27.75C48.09 27.75 48.08 27.76 48.07 27.79C48.07 27.84 48.06 27.84 48.02 27.85C48 27.85 47.98 27.85 47.98 27.86C47.99 27.91 47.97 27.93 47.94 27.93C47.92 27.93 47.9 27.95 47.89 27.98C47.88 28.02 47.87 28.03 47.83 28.02C47.82 28.02 47.81 28.04 47.79 28.07C47.78 28.1 47.76 28.12 47.75 28.12C47.74 28.11 47.72 28.13 47.7 28.15C47.69 28.17 47.66 28.2 47.64 28.22C47.61 28.23 47.59 28.25 47.6 28.26C47.6 28.27 47.58 28.29 47.55 28.3C47.53 28.32 47.5 28.33 47.51 28.34C47.52 28.36 47.49 28.39 47.45 28.4C47.43 28.4 47.41 28.4 47.41 28.41C47.42 28.45 47.4 28.48 47.37 28.49C47.35 28.49 47.33 28.51 47.32 28.53C47.31 28.57 47.29 28.58 47.24 28.57C47.24 28.57 47.23 28.59 47.23 28.61C47.23 28.65 47.23 28.65 47.18 28.66C47.16 28.67 47.14 28.69 47.13 28.71C47.13 28.74 47.11 28.76 47.09 28.75C47.08 28.75 47.05 28.77 47.04 28.8C47.03 28.83 47.01 28.85 47 28.85C46.97 28.84 46.92 28.89 46.94 28.9C46.95 28.91 46.93 28.93 46.89 28.94C46.86 28.95 46.84 28.97 46.85 28.99C46.85 29 46.84 29.02 46.8 29.03C46.78 29.04 46.75 29.07 46.76 29.08C46.76 29.1 46.74 29.11 46.71 29.12C46.69 29.13 46.67 29.14 46.66 29.15C46.66 29.17 46.66 29.18 46.66 29.19C46.66 29.2 46.64 29.21 46.62 29.22C46.6 29.22 46.58 29.24 46.57 29.26C46.57 29.28 46.55 29.3 46.53 29.3C46.51 29.3 46.49 29.32 46.48 29.34C46.47 29.37 46.46 29.39 46.44 29.39C46.41 29.39 46.4 29.4 46.39 29.43C46.38 29.47 46.36 29.48 46.32 29.48C46.32 29.48 46.3 29.5 46.29 29.53C46.28 29.56 46.26 29.58 46.24 29.57C46.22 29.56 46.17 29.61 46.19 29.63C46.19 29.64 46.17 29.65 46.14 29.67C46.11 29.68 46.09 29.7 46.1 29.72C46.11 29.74 46.1 29.75 46.05 29.76C46.02 29.77 46 29.79 46 29.79C46.01 29.83 45.99 29.85 45.95 29.86C45.92 29.86 45.91 29.88 45.91 29.9C45.91 29.93 45.89 29.94 45.86 29.95C45.83 29.96 45.81 29.97 45.81 29.99C45.81 30.01 45.81 30.03 45.8 30.03C45.79 30.03 45.77 30.03 45.75 30.03C45.74 30.04 45.73 30.05 45.73 30.08C45.72 30.1 45.71 30.12 45.69 30.12C45.67 30.12 45.65 30.14 45.63 30.17C45.62 30.21 45.6 30.22 45.59 30.22C45.57 30.21 45.55 30.23 45.54 30.26C45.52 30.28 45.5 30.3 45.48 30.3C45.47 30.3 45.45 30.32 45.44 30.34C45.43 30.36 45.41 30.38 45.41 30.38C45.4 30.38 45.4 30.39 45.4 30.4C45.41 30.41 45.41 30.42 45.4 30.42C45.36 30.41 45.34 30.42 45.34 30.45C45.35 30.47 45.33 30.48 45.3 30.49C45.28 30.5 45.25 30.51 45.25 30.52C45.25 30.53 45.25 30.55 45.25 30.56C45.25 30.57 45.23 30.58 45.2 30.59C45.17 30.59 45.15 30.61 45.15 30.63C45.15 30.65 45.14 30.67 45.11 30.67C45.09 30.67 45.07 30.69 45.07 30.72C45.06 30.74 45.05 30.76 45.03 30.76C45.01 30.76 44.99 30.78 44.97 30.81C44.96 30.85 44.94 30.86 44.93 30.86C44.91 30.85 44.89 30.86 44.88 30.9C44.87 30.94 44.85 30.95 44.83 30.94C44.81 30.93 44.8 30.95 44.79 30.98C44.77 31.02 44.76 31.03 44.74 31.03C44.72 31.02 44.67 31.07 44.68 31.09C44.69 31.1 44.67 31.11 44.64 31.13C44.6 31.14 44.59 31.16 44.59 31.18C44.6 31.19 44.59 31.21 44.55 31.22C44.52 31.23 44.5 31.24 44.5 31.25C44.5 31.29 44.49 31.3 44.46 31.31C44.44 31.32 44.41 31.34 44.41 31.36C44.4 31.39 44.37 31.4 44.32 31.4C44.32 31.4 44.31 31.4 44.31 31.41C44.32 31.46 44.31 31.48 44.27 31.48C44.25 31.48 44.23 31.5 44.23 31.53C44.22 31.57 44.2 31.58 44.16 31.58C44.15 31.57 44.14 31.6 44.13 31.63C44.12 31.66 44.1 31.68 44.09 31.67C44.07 31.66 44.05 31.68 44.04 31.7C44.02 31.73 43.99 31.76 43.97 31.77C43.94 31.78 43.93 31.8 43.93 31.82C43.94 31.83 43.92 31.85 43.89 31.86C43.85 31.87 43.83 31.88 43.84 31.9C43.85 31.92 43.84 31.94 43.8 31.95C43.77 31.96 43.74 31.97 43.75 31.98C43.75 32.02 43.74 32.03 43.7 32.04C43.67 32.05 43.65 32.07 43.65 32.09C43.65 32.11 43.63 32.12 43.61 32.13C43.59 32.13 43.57 32.16 43.56 32.18C43.56 32.2 43.54 32.21 43.52 32.21C43.49 32.21 43.46 32.27 43.48 32.3C43.48 32.31 43.47 32.31 43.44 32.31C43.41 32.31 43.39 32.32 43.38 32.36C43.37 32.39 43.35 32.4 43.33 32.4C43.32 32.39 43.3 32.41 43.29 32.43C43.27 32.46 43.24 32.48 43.22 32.5C43.19 32.51 43.17 32.53 43.18 32.54C43.19 32.56 43.17 32.57 43.14 32.59C43.1 32.6 43.09 32.62 43.1 32.63C43.1 32.65 43.09 32.66 43.05 32.68C43.01 32.69 43 32.7 43 32.72C43.01 32.74 42.97 32.78 42.93 32.78C42.92 32.78 42.91 32.79 42.91 32.8C42.9 32.81 42.9 32.82 42.9 32.83C42.9 32.84 42.88 32.85 42.86 32.86C42.83 32.86 42.81 32.88 42.81 32.9C42.81 32.93 42.79 32.94 42.77 32.94C42.75 32.94 42.73 32.96 42.72 32.99C42.71 33.03 42.7 33.04 42.66 33.03C42.65 33.03 42.64 33.05 42.63 33.08C42.61 33.12 42.6 33.13 42.58 33.13C42.57 33.12 42.55 33.14 42.53 33.16C42.52 33.18 42.49 33.21 42.46 33.22C42.43 33.24 42.42 33.25 42.43 33.27C42.44 33.29 42.42 33.3 42.39 33.32C42.35 33.33 42.34 33.34 42.34 33.36C42.35 33.38 42.33 33.39 42.3 33.41C42.26 33.42 42.24 33.44 42.24 33.46C42.24 33.48 42.22 33.49 42.2 33.5C42.17 33.5 42.15 33.52 42.15 33.54C42.15 33.56 42.13 33.58 42.11 33.58C42.09 33.59 42.07 33.6 42.06 33.62C42.06 33.66 42.05 33.67 42.01 33.68C41.99 33.68 41.97 33.7 41.96 33.72C41.96 33.75 41.94 33.77 41.92 33.76C41.91 33.76 41.89 33.78 41.88 33.81C41.86 33.85 41.85 33.86 41.83 33.86C41.82 33.85 41.8 33.86 41.78 33.89C41.77 33.91 41.74 33.94 41.71 33.96C41.69 33.97 41.67 33.99 41.68 34C41.69 34.02 41.67 34.03 41.64 34.04C41.61 34.06 41.58 34.07 41.59 34.09C41.59 34.11 41.57 34.12 41.54 34.13C41.51 34.14 41.49 34.16 41.49 34.18C41.49 34.2 41.47 34.22 41.45 34.22C41.42 34.23 41.4 34.24 41.4 34.27C41.4 34.29 41.38 34.31 41.35 34.31C41.33 34.32 41.31 34.33 41.31 34.36C41.3 34.39 41.29 34.4 41.25 34.4C41.25 34.4 41.23 34.42 41.22 34.45C41.21 34.47 41.18 34.5 41.16 34.5C41.14 34.5 41.13 34.51 41.12 34.53C41.12 34.56 41.1 34.58 41.07 34.58C41.05 34.59 41.03 34.61 41.03 34.62C41.03 34.64 41 34.66 40.97 34.68C40.94 34.7 40.92 34.72 40.93 34.73C40.93 34.75 40.92 34.76 40.88 34.77C40.85 34.78 40.83 34.8 40.83 34.82C40.84 34.84 40.82 34.85 40.79 34.86C40.76 34.87 40.74 34.89 40.74 34.91C40.74 34.93 40.72 34.95 40.69 34.96C40.66 34.96 40.64 34.98 40.64 35C40.64 35.03 40.63 35.04 40.61 35.04C40.59 35.04 40.57 35.06 40.55 35.09C40.54 35.13 40.53 35.15 40.51 35.14C40.49 35.13 40.48 35.15 40.46 35.18C40.45 35.22 40.44 35.23 40.42 35.22C40.4 35.22 40.39 35.23 40.38 35.26C40.37 35.28 40.35 35.3 40.34 35.3C40.33 35.3 40.3 35.33 40.27 35.36C40.25 35.39 40.22 35.41 40.21 35.41C40.2 35.41 40.18 35.43 40.18 35.45C40.17 35.48 40.15 35.5 40.12 35.5C40.1 35.51 40.09 35.52 40.09 35.55C40.09 35.58 40.08 35.59 40.04 35.59C40.01 35.6 39.99 35.61 39.99 35.64C39.98 35.66 39.97 35.68 39.94 35.68C39.92 35.68 39.9 35.7 39.9 35.73C39.89 35.75 39.88 35.77 39.85 35.77C39.83 35.77 39.81 35.79 39.8 35.82C39.8 35.85 39.78 35.86 39.74 35.86C39.74 35.86 39.72 35.88 39.71 35.91C39.7 35.94 39.68 35.96 39.67 35.95C39.65 35.95 39.63 35.96 39.62 35.99C39.61 36.01 39.59 36.03 39.57 36.04C39.55 36.05 39.52 36.07 39.51 36.09C39.5 36.12 39.47 36.14 39.45 36.15C39.43 36.15 39.42 36.17 39.42 36.19C39.42 36.21 39.41 36.22 39.38 36.23C39.35 36.24 39.34 36.25 39.34 36.27C39.34 36.29 39.28 36.35 39.25 36.34C39.25 36.34 39.24 36.35 39.24 36.36C39.23 36.4 39.23 36.41 39.18 36.41C39.17 36.42 39.15 36.43 39.15 36.44C39.15 36.45 39.14 36.47 39.14 36.48C39.14 36.48 39.12 36.49 39.1 36.5C39.08 36.5 39.06 36.52 39.05 36.55C39.04 36.58 39.03 36.59 39 36.59C38.98 36.59 38.96 36.61 38.96 36.64C38.95 36.66 38.93 36.68 38.92 36.68C38.9 36.67 38.88 36.69 38.87 36.71C38.86 36.74 38.83 36.76 38.81 36.77C38.79 36.78 38.77 36.8 38.76 36.82C38.76 36.85 38.73 36.87 38.71 36.88C38.68 36.88 38.67 36.9 38.67 36.92C38.67 36.93 38.66 36.95 38.63 36.96C38.6 36.96 38.58 36.98 38.58 37C38.58 37.02 38.57 37.04 38.54 37.05C38.51 37.05 38.49 37.07 38.48 37.09C38.48 37.12 38.46 37.13 38.44 37.14C38.41 37.14 38.4 37.16 38.39 37.18C38.39 37.21 38.38 37.22 38.37 37.23C38.36 37.23 38.34 37.23 38.33 37.23C38.32 37.23 38.31 37.24 38.3 37.25C38.3 37.27 38.3 37.29 38.3 37.3C38.3 37.32 38.28 37.33 38.26 37.32C38.23 37.32 38.21 37.33 38.21 37.37C38.2 37.39 38.18 37.41 38.16 37.4C38.15 37.4 38.13 37.41 38.12 37.44C38.12 37.46 38.09 37.49 38.07 37.5C38.05 37.51 38.02 37.53 38.01 37.56C38 37.58 37.98 37.6 37.95 37.6C37.92 37.61 37.91 37.62 37.92 37.64C37.93 37.66 37.91 37.67 37.88 37.69C37.83 37.7 37.82 37.71 37.84 37.74C37.85 37.77 37.86 37.78 37.85 37.77C37.83 37.75 37.73 37.79 37.73 37.83C37.73 37.85 37.71 37.86 37.69 37.87C37.66 37.87 37.64 37.89 37.64 37.92C37.63 37.94 37.61 37.96 37.59 37.96C37.57 37.96 37.55 37.97 37.55 38.01C37.55 38.05 37.54 38.06 37.5 38.05C37.48 38.05 37.46 38.06 37.46 38.09C37.45 38.12 37.44 38.14 37.42 38.14C37.37 38.14 37.36 38.15 37.36 38.19C37.36 38.22 37.35 38.23 37.32 38.23C37.28 38.23 37.25 38.27 37.26 38.3C37.27 38.31 37.25 38.32 37.22 38.33C37.18 38.33 37.17 38.34 37.17 38.37C37.18 38.4 37.17 38.41 37.13 38.42C37.09 38.42 37.08 38.43 37.08 38.46C37.08 38.48 37.06 38.5 37.03 38.5C37 38.51 36.98 38.53 36.98 38.55C36.98 38.57 36.96 38.59 36.94 38.59C36.91 38.6 36.89 38.61 36.89 38.64C36.88 38.68 36.87 38.69 36.83 38.68C36.82 38.68 36.81 38.7 36.8 38.73C36.79 38.77 36.78 38.78 36.75 38.78C36.72 38.78 36.71 38.79 36.71 38.82C36.7 38.84 36.68 38.86 36.66 38.86C36.63 38.87 36.61 38.89 36.61 38.91C36.6 38.93 36.58 38.95 36.56 38.96C36.52 38.97 36.52 38.97 36.51 39.02C36.51 39.03 36.49 39.05 36.46 39.05C36.43 39.06 36.42 39.07 36.42 39.1C36.43 39.13 36.42 39.14 36.38 39.15C36.34 39.15 36.33 39.16 36.33 39.19C36.33 39.22 36.32 39.23 36.29 39.23C36.25 39.24 36.23 39.25 36.23 39.28C36.23 39.3 36.21 39.32 36.18 39.32C36.16 39.33 36.14 39.35 36.13 39.37C36.13 39.4 36.11 39.42 36.09 39.42C36.06 39.42 36.05 39.43 36.04 39.48C36.04 39.52 36.03 39.53 36.02 39.52C36 39.48 35.97 39.49 35.96 39.54C35.95 39.57 35.94 39.59 35.92 39.59C35.91 39.59 35.88 39.61 35.86 39.64C35.83 39.67 35.81 39.69 35.79 39.69C35.78 39.69 35.76 39.71 35.76 39.74C35.75 39.76 35.73 39.78 35.71 39.78C35.68 39.79 35.67 39.8 35.67 39.83C35.67 39.85 35.67 39.87 35.65 39.87C35.58 39.88 35.58 39.88 35.58 39.91C35.59 39.94 35.51 39.99 35.49 39.98C35.49 39.97 35.49 39.98 35.48 40C35.48 40.04 35.47 40.05 35.44 40.05C35.42 40.06 35.41 40.06 35.41 40.07C35.4 40.11 35.36 40.15 35.33 40.15C35.31 40.15 35.3 40.16 35.29 40.19C35.29 40.23 35.28 40.24 35.25 40.24C35.22 40.24 35.21 40.25 35.2 40.28C35.2 40.31 35.19 40.33 35.18 40.32C35.14 40.31 35.11 40.34 35.11 40.38C35.1 40.4 35.08 40.42 35.06 40.42C35.04 40.43 35.02 40.45 35.01 40.47C35 40.49 34.98 40.51 34.97 40.51C34.92 40.51 34.9 40.54 34.93 40.58C34.94 40.59 34.94 40.6 34.94 40.6C34.91 40.57 34.82 40.61 34.82 40.64C34.82 40.66 34.81 40.68 34.78 40.69C34.75 40.69 34.73 40.71 34.73 40.74C34.72 40.76 34.71 40.78 34.7 40.78C34.69 40.78 34.68 40.78 34.66 40.78C34.65 40.78 34.64 40.8 34.64 40.81C34.64 40.82 34.64 40.84 34.63 40.86C34.63 40.87 34.62 40.88 34.59 40.88C34.56 40.88 34.55 40.89 34.54 40.92C34.54 40.94 34.52 40.96 34.51 40.96C34.45 40.97 34.45 40.97 34.45 41.02C34.45 41.04 34.44 41.06 34.43 41.05C34.39 41.04 34.36 41.07 34.35 41.11C34.35 41.14 34.34 41.15 34.31 41.15C34.28 41.15 34.26 41.16 34.25 41.19C34.25 41.22 34.23 41.24 34.2 41.24C34.18 41.25 34.17 41.26 34.17 41.29C34.17 41.32 34.16 41.33 34.12 41.33C34.09 41.33 34.07 41.35 34.07 41.36C34.07 41.37 34.07 41.39 34.07 41.4C34.06 41.41 34.04 41.42 34.02 41.42C34 41.42 33.98 41.44 33.97 41.47C33.96 41.5 33.95 41.51 33.93 41.51C33.9 41.51 33.89 41.53 33.88 41.56C33.87 41.59 33.86 41.6 33.83 41.6C33.81 41.6 33.79 41.62 33.79 41.65C33.78 41.67 33.77 41.69 33.76 41.69C33.7 41.7 33.7 41.7 33.7 41.75C33.7 41.77 33.69 41.79 33.68 41.78C33.67 41.78 33.66 41.78 33.65 41.79C33.64 41.8 33.63 41.8 33.62 41.8C33.61 41.79 33.6 41.83 33.6 41.86C33.6 41.87 33.58 41.88 33.56 41.88C33.54 41.88 33.51 41.89 33.51 41.9C33.5 41.92 33.49 41.92 33.48 41.9C33.48 41.89 33.46 41.88 33.44 41.88C33.42 41.88 33.4 41.86 33.4 41.83C33.39 41.8 33.37 41.79 33.35 41.79C33.33 41.79 33.31 41.77 33.3 41.75C33.29 41.72 33.27 41.7 33.25 41.69C33.22 41.69 33.2 41.67 33.2 41.65C33.2 41.62 33.19 41.61 33.16 41.6C33.13 41.59 33.11 41.58 33.11 41.55C33.1 41.53 33.09 41.51 33.06 41.51C33.04 41.5 33.02 41.49 33.01 41.46C33.01 41.44 32.99 41.42 32.97 41.42C32.94 41.42 32.93 41.4 32.92 41.37C32.92 41.35 32.9 41.33 32.88 41.33C32.85 41.33 32.83 41.31 32.83 41.29C32.83 41.26 32.81 41.24 32.78 41.24C32.75 41.23 32.73 41.22 32.73 41.19C32.73 41.17 32.72 41.16 32.68 41.15C32.65 41.14 32.63 41.13 32.63 41.13C32.64 41.09 32.63 41.06 32.6 41.07C32.58 41.08 32.57 41.06 32.55 41.03C32.54 41 32.52 40.97 32.49 40.96C32.47 40.96 32.45 40.94 32.45 40.92C32.45 40.9 32.43 40.88 32.41 40.87C32.38 40.87 32.36 40.85 32.35 40.82C32.35 40.8 32.33 40.78 32.31 40.78C32.28 40.78 32.27 40.76 32.26 40.74C32.26 40.71 32.24 40.69 32.22 40.69C32.19 40.69 32.18 40.67 32.17 40.65C32.17 40.62 32.15 40.61 32.13 40.6C32.1 40.6 32.08 40.58 32.08 40.56C32.08 40.53 32.06 40.52 32.03 40.51C32.01 40.51 31.99 40.49 31.99 40.47C31.98 40.44 31.97 40.43 31.94 40.42C31.92 40.42 31.9 40.4 31.89 40.38C31.89 40.35 31.86 40.33 31.84 40.33C31.82 40.32 31.8 40.3 31.8 40.28C31.79 40.26 31.77 40.24 31.74 40.23C31.72 40.23 31.7 40.21 31.7 40.19C31.7 40.17 31.68 40.15 31.65 40.15C31.62 40.14 31.61 40.12 31.61 40.1C31.61 40.08 31.59 40.06 31.56 40.06C31.53 40.05 31.51 40.03 31.51 40.01C31.51 39.98 31.49 39.97 31.47 39.96C31.44 39.96 31.42 39.94 31.42 39.92C31.42 39.9 31.4 39.88 31.39 39.88C31.38 39.88 31.36 39.87 31.35 39.87C31.34 39.87 31.33 39.85 31.33 39.83C31.32 39.8 31.31 39.79 31.28 39.78C31.26 39.78 31.24 39.76 31.24 39.74C31.23 39.72 31.22 39.7 31.19 39.7C31.17 39.69 31.15 39.67 31.14 39.65C31.14 39.63 31.11 39.6 31.09 39.6C31.07 39.59 31.05 39.57 31.04 39.55C31.04 39.53 31.01 39.51 30.99 39.5C30.96 39.5 30.95 39.48 30.95 39.46C30.95 39.44 30.93 39.42 30.9 39.42C30.87 39.41 30.85 39.39 30.85 39.37C30.85 39.34 30.83 39.33 30.81 39.32C30.78 39.32 30.76 39.3 30.76 39.28C30.75 39.26 30.73 39.24 30.71 39.24C30.69 39.23 30.67 39.21 30.67 39.19C30.66 39.17 30.65 39.15 30.62 39.15C30.6 39.14 30.58 39.12 30.58 39.1C30.57 39.08 30.56 39.06 30.53 39.06C30.51 39.05 30.49 39.04 30.48 39.01C30.48 38.99 30.46 38.97 30.44 38.97C30.42 38.96 30.4 38.95 30.39 38.92C30.38 38.9 30.36 38.88 30.34 38.87C30.32 38.86 30.3 38.84 30.29 38.82C30.29 38.8 30.26 38.78 30.24 38.78C30.21 38.77 30.19 38.75 30.19 38.73C30.19 38.7 30.17 38.69 30.15 38.68C30.12 38.68 30.1 38.66 30.1 38.64C30.1 38.61 30.08 38.6 30.05 38.59C30.03 38.59 30.01 38.57 30.01 38.55C30 38.53 29.99 38.51 29.96 38.51C29.94 38.5 29.92 38.49 29.92 38.46C29.91 38.44 29.9 38.42 29.87 38.42C29.85 38.41 29.83 38.39 29.82 38.37C29.81 38.34 29.8 38.32 29.78 38.32C29.75 38.32 29.74 38.31 29.73 38.28C29.72 38.25 29.7 38.24 29.68 38.24C29.66 38.24 29.64 38.22 29.64 38.19C29.63 38.17 29.61 38.14 29.58 38.13C29.56 38.12 29.54 38.1 29.54 38.09C29.54 38.07 29.51 38.05 29.49 38.05C29.46 38.04 29.44 38.02 29.44 38C29.44 37.97 29.42 37.96 29.39 37.95C29.37 37.95 29.35 37.93 29.35 37.91C29.34 37.89 29.33 37.87 29.3 37.87C29.28 37.86 29.26 37.85 29.26 37.82C29.25 37.8 29.24 37.78 29.21 37.78C29.19 37.77 29.17 37.76 29.17 37.73C29.16 37.71 29.14 37.69 29.12 37.69C29.09 37.68 29.08 37.67 29.07 37.64C29.07 37.62 29.05 37.6 29.03 37.6C29 37.6 28.98 37.58 28.98 37.55C28.97 37.52 28.95 37.51 28.93 37.51C28.91 37.51 28.89 37.49 28.88 37.46C28.88 37.44 28.86 37.42 28.84 37.41C28.82 37.41 28.79 37.39 28.79 37.37C28.78 37.35 28.76 37.32 28.74 37.32C28.71 37.31 28.69 37.29 28.69 37.27C28.68 37.25 28.67 37.23 28.64 37.23C28.62 37.22 28.6 37.21 28.6 37.18C28.59 37.16 28.58 37.14 28.55 37.14C28.53 37.13 28.51 37.12 28.51 37.09C28.5 37.07 28.49 37.05 28.48 37.05C28.46 37.05 28.45 37.05 28.44 37.05C28.43 37.05 28.42 37.03 28.41 37.01C28.41 36.98 28.39 36.96 28.37 36.96C28.34 36.96 28.33 36.94 28.32 36.92C28.32 36.89 28.3 36.87 28.27 36.87C28.25 36.87 28.23 36.85 28.23 36.83C28.23 36.81 28.22 36.79 28.19 36.78C28.16 36.77 28.14 36.75 28.13 36.73C28.13 36.71 28.1 36.69 28.08 36.68C28.05 36.66 28.03 36.64 28.03 36.63C28.03 36.61 28.01 36.6 27.99 36.59C27.96 36.58 27.94 36.57 27.94 36.55C27.94 36.53 27.92 36.51 27.9 36.5C27.87 36.5 27.85 36.48 27.85 36.45C27.84 36.43 27.82 36.41 27.8 36.41C27.77 36.41 27.76 36.39 27.75 36.36C27.75 36.34 27.74 36.32 27.72 36.32C27.71 36.32 27.69 36.32 27.68 36.32C27.68 36.32 27.67 36.3 27.66 36.28C27.66 36.25 27.64 36.23 27.62 36.23C27.59 36.23 27.57 36.21 27.57 36.19C27.57 36.16 27.55 36.15 27.52 36.14C27.5 36.14 27.48 36.12 27.48 36.1C27.48 36.08 27.46 36.06 27.44 36.05C27.41 36.04 27.39 36.02 27.38 36C27.38 35.98 27.35 35.96 27.33 35.95C27.31 35.95 27.29 35.92 27.28 35.9C27.27 35.87 27.25 35.85 27.23 35.85C27.2 35.85 27.19 35.84 27.19 35.82C27.18 35.79 27.16 35.77 27.14 35.77C27.11 35.77 27.1 35.75 27.09 35.73C27.09 35.7 27.07 35.68 27.05 35.68C27.02 35.68 27.01 35.66 27 35.64C27 35.61 26.98 35.6 26.96 35.6C26.94 35.6 26.92 35.58 26.91 35.55C26.91 35.53 26.89 35.51 26.86 35.5C26.84 35.5 26.82 35.48 26.82 35.46C26.81 35.43 26.8 35.42 26.77 35.41C26.74 35.41 26.73 35.4 26.73 35.37C26.73 35.35 26.71 35.33 26.69 35.32C26.66 35.31 26.64 35.29 26.63 35.27C26.62 35.25 26.6 35.23 26.57 35.22C26.54 35.21 26.5 35.19 26.49 35.17C26.47 35.14 26.43 35.13 26.4 35.13C26.37 35.13 26.33 35.11 26.3 35.08C26.25 35.03 25.94 35.01 25.94 35.06C25.94 35.07 25.93 35.07 25.93 35.07C25.92 35.06 25.9 35.07 25.9 35.09C25.89 35.12 25.87 35.13 25.82 35.13C25.72 35.13 25.71 35.13 25.71 35.18C25.71 35.22 25.71 35.23 25.66 35.22C25.63 35.22 25.61 35.23 25.61 35.24C25.62 35.28 25.61 35.3 25.58 35.3C25.56 35.3 25.56 35.36 25.56 35.67C25.56 35.98 25.56 36.03 25.58 36.03C25.6 36.03 25.61 36.05 25.61 36.08C25.61 36.11 25.62 36.12 25.66 36.12C25.69 36.12 25.7 36.13 25.7 36.17C25.7 36.2 25.71 36.21 25.75 36.21C25.78 36.21 25.79 36.22 25.8 36.26C25.8 36.29 25.82 36.31 25.84 36.31C25.87 36.32 25.89 36.33 25.89 36.36C25.89 36.38 25.91 36.4 25.94 36.41C25.97 36.41 25.99 36.43 25.99 36.45C25.99 36.47 26 36.49 26.03 36.49C26.06 36.5 26.08 36.51 26.08 36.53C26.08 36.54 26.09 36.56 26.09 36.57C26.09 36.58 26.1 36.58 26.1 36.58C26.13 36.56 26.16 36.59 26.17 36.63C26.17 36.65 26.19 36.67 26.21 36.67C26.24 36.67 26.26 36.69 26.26 36.72C26.27 36.75 26.29 36.76 26.32 36.76C26.35 36.76 26.36 36.77 26.36 36.81C26.36 36.84 26.37 36.85 26.41 36.85C26.45 36.85 26.46 36.86 26.46 36.89C26.46 36.93 26.46 36.94 26.5 36.94C26.54 36.94 26.55 36.95 26.55 36.99C26.55 37.02 26.57 37.04 26.59 37.04C26.62 37.04 26.63 37.05 26.64 37.08C26.64 37.11 26.66 37.13 26.69 37.13C26.71 37.13 26.73 37.15 26.73 37.18C26.74 37.2 26.75 37.21 26.77 37.21C26.8 37.21 26.83 37.23 26.83 37.26C26.83 37.27 26.84 37.28 26.84 37.29C26.84 37.3 26.86 37.31 26.88 37.31C26.9 37.31 26.91 37.32 26.92 37.33C26.92 37.34 26.92 37.36 26.92 37.37C26.92 37.38 26.94 37.39 26.97 37.4C27 37.41 27.02 37.43 27.02 37.45C27.02 37.48 27.04 37.49 27.07 37.49C27.11 37.49 27.12 37.5 27.12 37.53C27.12 37.57 27.12 37.58 27.16 37.58C27.2 37.58 27.21 37.59 27.21 37.62C27.21 37.66 27.22 37.67 27.25 37.67C27.29 37.67 27.3 37.68 27.3 37.72C27.31 37.75 27.32 37.77 27.35 37.77C27.37 37.77 27.39 37.78 27.39 37.79C27.39 37.8 27.4 37.82 27.4 37.83C27.4 37.84 27.42 37.85 27.44 37.85C27.48 37.85 27.49 37.86 27.49 37.9C27.49 37.93 27.5 37.94 27.54 37.95C27.56 37.96 27.58 37.97 27.59 37.98C27.59 38 27.59 38.01 27.59 38.02C27.59 38.03 27.61 38.04 27.63 38.04C27.65 38.04 27.67 38.05 27.67 38.06C27.67 38.07 27.67 38.09 27.67 38.1C27.67 38.11 27.7 38.12 27.72 38.13C27.75 38.14 27.77 38.15 27.77 38.18C27.78 38.21 27.79 38.22 27.82 38.22C27.86 38.22 27.87 38.23 27.87 38.26C27.87 38.3 27.88 38.31 27.91 38.31C27.95 38.31 27.96 38.32 27.96 38.36C27.97 38.39 27.98 38.4 28 38.4C28.03 38.4 28.04 38.42 28.05 38.45C28.06 38.48 28.07 38.5 28.1 38.5C28.12 38.5 28.14 38.52 28.15 38.54C28.15 38.57 28.17 38.58 28.19 38.59C28.22 38.59 28.23 38.61 28.24 38.63C28.24 38.66 28.26 38.67 28.28 38.68C28.31 38.68 28.33 38.7 28.33 38.73C28.34 38.75 28.35 38.77 28.36 38.76C28.37 38.76 28.39 38.77 28.42 38.79C28.44 38.81 28.45 38.82 28.43 38.83C28.41 38.84 28.42 38.84 28.5 38.87C28.51 38.87 28.53 38.89 28.53 38.91C28.53 38.94 28.54 38.95 28.57 38.95C28.61 38.95 28.62 38.96 28.62 38.99C28.62 39.03 28.63 39.04 28.66 39.04C28.7 39.04 28.71 39.05 28.71 39.08C28.72 39.12 28.73 39.13 28.76 39.14C28.78 39.14 28.8 39.16 28.81 39.18C28.81 39.21 28.83 39.22 28.85 39.23C28.88 39.23 28.89 39.25 28.9 39.27C28.9 39.3 28.92 39.31 28.95 39.32C28.98 39.33 28.99 39.34 28.99 39.36C28.99 39.39 29.01 39.4 29.04 39.41C29.07 39.41 29.09 39.43 29.09 39.44C29.09 39.45 29.09 39.47 29.09 39.48C29.09 39.49 29.11 39.5 29.13 39.5C29.15 39.5 29.17 39.51 29.17 39.51C29.17 39.52 29.17 39.54 29.18 39.55C29.18 39.57 29.2 39.58 29.23 39.58C29.27 39.59 29.28 39.6 29.28 39.63C29.28 39.67 29.29 39.67 29.32 39.67C29.37 39.67 29.38 39.7 29.37 39.75C29.37 39.76 29.39 39.76 29.41 39.76C29.45 39.76 29.46 39.77 29.47 39.81C29.47 39.85 29.48 39.86 29.51 39.87C29.54 39.87 29.55 39.89 29.56 39.91C29.56 39.94 29.58 39.95 29.6 39.96C29.63 39.96 29.65 39.98 29.65 40C29.65 40.02 29.67 40.04 29.7 40.05C29.73 40.05 29.75 40.07 29.75 40.09C29.75 40.11 29.76 40.13 29.77 40.13C29.78 40.13 29.8 40.13 29.82 40.13C29.83 40.14 29.84 40.15 29.84 40.16C29.83 40.19 29.85 40.22 29.89 40.23C29.91 40.23 29.93 40.25 29.93 40.27C29.93 40.3 29.94 40.31 29.98 40.31C30.02 40.32 30.03 40.33 30.03 40.36C30.03 40.39 30.04 40.4 30.08 40.4C30.11 40.4 30.12 40.41 30.12 40.45C30.12 40.48 30.13 40.49 30.17 40.49C30.2 40.49 30.21 40.5 30.22 40.54C30.22 40.58 30.23 40.59 30.26 40.59C30.28 40.59 30.3 40.6 30.31 40.63C30.31 40.66 30.33 40.68 30.36 40.68C30.39 40.69 30.4 40.7 30.4 40.73C30.4 40.77 30.41 40.78 30.44 40.78C30.48 40.78 30.49 40.79 30.49 40.82C30.49 40.86 30.5 40.87 30.54 40.87C30.58 40.87 30.59 40.87 30.59 40.89C30.58 40.92 30.6 40.95 30.64 40.96C30.67 40.96 30.68 40.98 30.68 41C30.68 41.02 30.7 41.04 30.73 41.04C30.77 41.04 30.78 41.05 30.78 41.09C30.78 41.12 30.79 41.13 30.83 41.13C30.87 41.13 30.88 41.15 30.88 41.21C30.87 41.21 30.89 41.22 30.92 41.22C30.95 41.22 30.96 41.23 30.97 41.27C30.97 41.3 30.99 41.32 31.01 41.32C31.04 41.33 31.06 41.34 31.06 41.37C31.06 41.39 31.08 41.41 31.11 41.41C31.14 41.42 31.15 41.43 31.15 41.46C31.15 41.5 31.16 41.5 31.19 41.5C31.23 41.5 31.24 41.51 31.24 41.55C31.24 41.58 31.25 41.59 31.26 41.59C31.32 41.59 31.35 41.6 31.34 41.62C31.33 41.65 31.35 41.68 31.4 41.69C31.42 41.69 31.43 41.71 31.43 41.73C31.43 41.75 31.45 41.76 31.48 41.77C31.52 41.77 31.53 41.78 31.53 41.82C31.53 41.85 31.54 41.86 31.58 41.86C31.61 41.86 31.63 41.87 31.63 41.89C31.63 41.9 31.63 41.92 31.63 41.94C31.63 41.95 31.65 41.96 31.67 41.96C31.7 41.97 31.72 41.98 31.72 42.01C31.72 42.03 31.74 42.05 31.77 42.05C31.79 42.06 31.81 42.07 31.81 42.1C31.82 42.12 31.83 42.14 31.86 42.13C31.89 42.13 31.9 42.14 31.9 42.18C31.9 42.22 31.91 42.23 31.95 42.23C31.98 42.23 31.99 42.24 31.99 42.28C31.99 42.32 32 42.32 32.05 42.32C32.08 42.32 32.1 42.33 32.09 42.34C32.08 42.37 32.1 42.41 32.14 42.41C32.16 42.41 32.18 42.42 32.2 42.44C32.22 42.47 32.22 42.47 32.2 42.46C32.18 42.45 32.17 42.45 32.18 42.47C32.18 42.48 32.21 42.49 32.24 42.5C32.27 42.5 32.28 42.51 32.28 42.55C32.28 42.58 32.29 42.59 32.33 42.59C32.36 42.59 32.38 42.6 32.38 42.64C32.38 42.67 32.4 42.69 32.43 42.69C32.45 42.7 32.47 42.71 32.47 42.74C32.48 42.76 32.49 42.78 32.52 42.78C32.54 42.78 32.56 42.8 32.56 42.83C32.57 42.85 32.58 42.87 32.61 42.87C32.64 42.87 32.65 42.89 32.65 42.92C32.65 42.94 32.66 42.96 32.67 42.96C32.73 42.95 32.74 42.96 32.74 43.01C32.74 43.04 32.75 43.05 32.8 43.05C32.83 43.05 32.85 43.06 32.84 43.07C32.83 43.1 32.86 43.13 32.9 43.14C32.92 43.15 32.94 43.16 32.94 43.18C32.94 43.21 32.95 43.22 32.99 43.22C33.03 43.23 33.04 43.24 33.04 43.27C33.04 43.31 33.05 43.32 33.08 43.32C33.11 43.32 33.13 43.33 33.13 43.34C33.13 43.37 33.18 43.37 33.5 43.37C33.83 43.37 33.88 43.37 33.88 43.34C33.88 43.33 33.9 43.32 33.93 43.32C33.96 43.32 33.97 43.31 33.97 43.27C33.97 43.24 33.98 43.23 34.02 43.23C34.06 43.23 34.06 43.22 34.06 43.19C34.06 43.16 34.06 43.15 34.1 43.14C34.14 43.14 34.15 43.13 34.15 43.09C34.15 43.06 34.16 43.05 34.2 43.05C34.24 43.05 34.25 43.04 34.25 43.01C34.25 42.97 34.26 42.96 34.29 42.96C34.33 42.96 34.34 42.95 34.34 42.91C34.34 42.87 34.34 42.86 34.38 42.87C34.42 42.88 34.43 42.87 34.43 42.83C34.43 42.8 34.44 42.78 34.46 42.78C34.51 42.78 34.55 42.74 34.53 42.71C34.53 42.69 34.53 42.68 34.55 42.69C34.58 42.7 34.63 42.66 34.63 42.62C34.63 42.6 34.65 42.59 34.68 42.59C34.72 42.59 34.73 42.58 34.72 42.54C34.71 42.51 34.72 42.5 34.76 42.5C34.81 42.5 34.81 42.49 34.81 42.46C34.81 42.42 34.82 42.41 34.86 42.41C34.9 42.41 34.91 42.4 34.91 42.37C34.91 42.33 34.92 42.32 34.95 42.32C34.99 42.32 35 42.31 35 42.27C35.01 42.23 35.02 42.23 35.05 42.23C35.08 42.23 35.09 42.23 35.09 42.18C35.09 42.14 35.1 42.13 35.14 42.14C35.18 42.15 35.18 42.14 35.18 42.1C35.18 42.07 35.19 42.06 35.22 42.06C35.26 42.06 35.3 42.01 35.29 41.98C35.28 41.96 35.28 41.95 35.3 41.96C35.34 41.97 35.38 41.94 35.38 41.89C35.38 41.87 35.4 41.86 35.43 41.86C35.47 41.86 35.47 41.85 35.47 41.82C35.47 41.78 35.48 41.77 35.52 41.77C35.56 41.77 35.57 41.76 35.57 41.73C35.57 41.69 35.58 41.68 35.61 41.68C35.65 41.68 35.66 41.67 35.66 41.64C35.66 41.6 35.67 41.59 35.7 41.59C35.74 41.59 35.75 41.58 35.75 41.54C35.76 41.51 35.77 41.5 35.8 41.5C35.83 41.51 35.84 41.5 35.84 41.46C35.84 41.42 35.85 41.42 35.89 41.42C35.93 41.42 35.93 41.41 35.93 41.36C35.93 41.32 35.94 41.31 35.97 41.32C36.01 41.33 36.05 41.28 36.04 41.25C36.03 41.23 36.04 41.22 36.08 41.22C36.11 41.21 36.13 41.2 36.13 41.17C36.14 41.14 36.15 41.13 36.18 41.13C36.22 41.13 36.23 41.13 36.22 41.09C36.21 41.05 36.22 41.04 36.27 41.04C36.31 41.04 36.32 41.04 36.32 41C36.32 40.96 36.33 40.95 36.36 40.95C36.4 40.95 36.41 40.95 36.41 40.91C36.41 40.87 36.42 40.87 36.45 40.87C36.49 40.87 36.5 40.85 36.5 40.82C36.51 40.78 36.52 40.77 36.55 40.77C36.59 40.78 36.59 40.77 36.59 40.73C36.59 40.7 36.6 40.69 36.63 40.68C36.66 40.68 36.68 40.67 36.68 40.64C36.69 40.55 36.68 40.55 36.7 40.58C36.73 40.62 36.79 40.58 36.79 40.53C36.79 40.51 36.8 40.5 36.83 40.49C36.86 40.49 36.88 40.47 36.88 40.44C36.89 40.41 36.9 40.4 36.94 40.4C36.98 40.4 36.98 40.4 36.97 40.36C36.97 40.32 36.97 40.31 37.02 40.31C37.06 40.31 37.07 40.31 37.07 40.27C37.07 40.23 37.09 40.22 37.14 40.22C37.15 40.23 37.16 40.21 37.16 40.18C37.16 40.15 37.17 40.14 37.21 40.14C37.24 40.14 37.25 40.13 37.25 40.09C37.25 40.06 37.26 40.05 37.3 40.05C37.34 40.05 37.34 40.04 37.34 40C37.34 39.97 37.36 39.96 37.39 39.96C37.42 39.95 37.43 39.94 37.43 39.9C37.44 39.87 37.45 39.86 37.47 39.86C37.5 39.88 37.55 39.83 37.54 39.8C37.53 39.77 37.54 39.76 37.58 39.76C37.61 39.76 37.63 39.74 37.63 39.71C37.64 39.69 37.65 39.67 37.69 39.67C37.72 39.67 37.73 39.67 37.73 39.63C37.73 39.59 37.74 39.59 37.78 39.59C37.81 39.59 37.82 39.58 37.82 39.54C37.82 39.5 37.84 39.49 37.89 39.5C37.9 39.5 37.91 39.49 37.91 39.48C37.9 39.42 37.92 39.41 37.96 39.41C38 39.41 38 39.4 38 39.36C38 39.31 38.01 39.31 38.05 39.32C38.09 39.32 38.1 39.32 38.1 39.28C38.1 39.24 38.11 39.23 38.14 39.23C38.16 39.22 38.18 39.21 38.18 39.18C38.19 39.16 38.2 39.14 38.22 39.14C38.24 39.14 38.26 39.13 38.28 39.12C38.29 39.11 38.3 39.09 38.3 39.07C38.3 39.05 38.31 39.04 38.34 39.03C38.37 39.03 38.38 39.01 38.39 38.99C38.39 38.96 38.4 38.95 38.44 38.95C38.47 38.95 38.48 38.94 38.48 38.9C38.48 38.87 38.49 38.86 38.53 38.86C38.56 38.86 38.57 38.85 38.57 38.81C38.57 38.78 38.58 38.77 38.62 38.77C38.65 38.77 38.66 38.76 38.66 38.75C38.64 38.71 38.68 38.66 38.72 38.67C38.75 38.68 38.76 38.68 38.76 38.63C38.76 38.59 38.76 38.58 38.8 38.58C38.83 38.58 38.84 38.57 38.84 38.54C38.85 38.52 38.87 38.5 38.89 38.5C38.92 38.49 38.93 38.48 38.94 38.45C38.94 38.41 38.95 38.4 38.97 38.41C39.01 38.42 39.05 38.38 39.05 38.34C39.04 38.31 39.05 38.3 39.09 38.3C39.12 38.3 39.13 38.29 39.14 38.26C39.14 38.23 39.16 38.22 39.19 38.22C39.22 38.22 39.23 38.21 39.23 38.17C39.23 38.14 39.24 38.13 39.28 38.13C39.32 38.13 39.32 38.12 39.32 38.08C39.32 38.05 39.33 38.04 39.37 38.04C39.4 38.04 39.42 38.03 39.41 38.02C39.41 37.97 39.42 37.95 39.46 37.95C39.5 37.95 39.51 37.94 39.51 37.91C39.51 37.88 39.52 37.86 39.55 37.86C39.58 37.86 39.59 37.84 39.6 37.81C39.61 37.78 39.62 37.76 39.65 37.76C39.67 37.76 39.68 37.75 39.69 37.72C39.69 37.68 39.7 37.67 39.74 37.66C39.78 37.66 39.79 37.65 39.79 37.62C39.79 37.6 39.81 37.58 39.84 37.58C39.87 37.57 39.89 37.56 39.89 37.53C39.89 37.5 39.91 37.49 39.94 37.49C39.98 37.49 39.98 37.48 39.98 37.45C39.98 37.4 40 37.39 40.05 37.4C40.07 37.4 40.08 37.38 40.08 37.36C40.08 37.32 40.09 37.31 40.12 37.31C40.16 37.31 40.17 37.3 40.17 37.26C40.18 37.22 40.19 37.22 40.22 37.22C40.25 37.22 40.26 37.22 40.26 37.18C40.26 37.15 40.27 37.14 40.3 37.13C40.33 37.13 40.34 37.11 40.35 37.09C40.35 37.06 40.37 37.05 40.39 37.04C40.42 37.04 40.44 37.02 40.44 36.99C40.44 36.95 40.45 36.94 40.49 36.94C40.54 36.94 40.57 36.89 40.53 36.87C40.52 36.86 40.53 36.85 40.57 36.85C40.62 36.84 40.64 36.83 40.64 36.8C40.65 36.77 40.66 36.76 40.69 36.76C40.73 36.76 40.74 36.75 40.73 36.73C40.72 36.69 40.76 36.65 40.8 36.67C40.82 36.67 40.83 36.66 40.83 36.63C40.83 36.59 40.84 36.58 40.87 36.58C40.9 36.58 40.92 36.57 40.92 36.56C40.91 36.51 40.92 36.49 40.97 36.49C41 36.49 41.01 36.49 41.01 36.45C41.01 36.42 41.02 36.41 41.05 36.4C41.08 36.4 41.1 36.38 41.1 36.35C41.11 36.32 41.12 36.31 41.15 36.31C41.17 36.31 41.19 36.29 41.19 36.26C41.2 36.22 41.21 36.21 41.25 36.21C41.28 36.2 41.3 36.19 41.3 36.17C41.3 36.14 41.31 36.13 41.34 36.12C41.37 36.12 41.39 36.1 41.39 36.07C41.4 36.04 41.41 36.03 41.45 36.03C41.48 36.03 41.49 36.03 41.48 36C41.47 35.96 41.52 35.92 41.56 35.94C41.57 35.94 41.58 35.93 41.58 35.9C41.58 35.86 41.59 35.85 41.63 35.85C41.65 35.85 41.67 35.85 41.67 35.83C41.66 35.78 41.67 35.77 41.72 35.77C41.75 35.77 41.76 35.76 41.76 35.72C41.76 35.69 41.77 35.68 41.8 35.67C41.83 35.67 41.85 35.65 41.85 35.62C41.86 35.59 41.88 35.58 41.9 35.58C41.93 35.58 41.94 35.57 41.94 35.53C41.95 35.49 41.96 35.48 42 35.48C42.03 35.47 42.05 35.46 42.05 35.43C42.06 35.41 42.07 35.39 42.1 35.39C42.12 35.39 42.14 35.37 42.14 35.34C42.15 35.31 42.16 35.3 42.2 35.3C42.23 35.3 42.24 35.3 42.24 35.26C42.23 35.23 42.24 35.22 42.28 35.22C42.32 35.21 42.33 35.2 42.33 35.17C42.34 35.13 42.35 35.12 42.38 35.12C42.41 35.13 42.42 35.12 42.42 35.11C42.41 35.06 42.42 35.04 42.46 35.03C42.49 35.03 42.51 35.01 42.51 34.99C42.51 34.97 42.53 34.95 42.56 34.95C42.58 34.94 42.6 34.92 42.61 34.9C42.61 34.87 42.63 34.85 42.65 34.85C42.68 34.85 42.69 34.84 42.7 34.8C42.71 34.76 42.72 34.75 42.75 34.74C42.79 34.74 42.8 34.73 42.8 34.71C42.8 34.69 42.81 34.67 42.84 34.66C42.87 34.66 42.89 34.64 42.9 34.62C42.9 34.59 42.92 34.58 42.94 34.57C42.97 34.57 42.98 34.55 42.99 34.53C42.99 34.49 43.01 34.48 43.06 34.49C43.07 34.49 43.08 34.48 43.08 34.47C43.07 34.41 43.08 34.4 43.13 34.4C43.16 34.4 43.17 34.39 43.17 34.35C43.17 34.32 43.19 34.31 43.22 34.31C43.24 34.3 43.26 34.28 43.27 34.26C43.27 34.23 43.29 34.21 43.31 34.21C43.34 34.21 43.35 34.2 43.35 34.16C43.36 34.12 43.37 34.11 43.4 34.11C43.44 34.11 43.45 34.1 43.45 34.07C43.45 34.04 43.46 34.03 43.5 34.02C43.54 34.02 43.55 34.01 43.55 33.98C43.55 33.96 43.57 33.94 43.6 33.94C43.63 33.93 43.64 33.91 43.65 33.89C43.65 33.87 43.66 33.85 43.67 33.85C43.68 33.84 43.7 33.84 43.71 33.84C43.72 33.84 43.73 33.82 43.73 33.8C43.73 33.78 43.75 33.77 43.78 33.76C43.83 33.76 43.86 33.72 43.81 33.72C43.78 33.72 43.84 33.67 43.88 33.67C43.9 33.66 43.92 33.64 43.92 33.62C43.93 33.6 43.94 33.58 43.97 33.58C43.99 33.57 44.01 33.56 44.01 33.53C44.02 33.51 44.03 33.49 44.06 33.49C44.09 33.48 44.1 33.47 44.11 33.43C44.11 33.4 44.12 33.39 44.16 33.39C44.19 33.39 44.2 33.38 44.2 33.34C44.2 33.31 44.21 33.3 44.25 33.29C44.29 33.29 44.3 33.28 44.3 33.25C44.3 33.23 44.32 33.21 44.35 33.21C44.38 33.2 44.4 33.18 44.4 33.16C44.4 33.12 44.42 33.11 44.47 33.12C44.49 33.12 44.49 33.11 44.49 33.07C44.48 33.02 44.48 33.02 44.53 33.03C44.57 33.03 44.59 33.03 44.58 33.01C44.58 32.96 44.59 32.94 44.63 32.94C44.65 32.93 44.67 32.92 44.67 32.91C44.67 32.9 44.67 32.88 44.68 32.87C44.68 32.86 44.7 32.85 44.72 32.85C44.74 32.85 44.76 32.83 44.77 32.8C44.77 32.78 44.79 32.76 44.81 32.76C44.84 32.76 44.85 32.74 44.86 32.71C44.86 32.67 44.87 32.66 44.91 32.65C44.95 32.65 44.96 32.64 44.96 32.61C44.96 32.59 44.98 32.57 45.01 32.57C45.04 32.56 45.06 32.55 45.06 32.52C45.06 32.5 45.07 32.48 45.08 32.48C45.09 32.48 45.11 32.47 45.12 32.47C45.13 32.47 45.15 32.45 45.15 32.43C45.15 32.41 45.16 32.39 45.17 32.39C45.18 32.39 45.2 32.39 45.21 32.38C45.23 32.38 45.24 32.37 45.24 32.35C45.24 32.33 45.25 32.31 45.27 32.3C45.32 32.3 45.36 32.27 45.32 32.27C45.29 32.27 45.34 32.22 45.38 32.21C45.4 32.21 45.42 32.19 45.42 32.18C45.42 32.17 45.43 32.15 45.43 32.14C45.43 32.13 45.45 32.12 45.47 32.12C45.5 32.12 45.51 32.1 45.52 32.07C45.53 32.04 45.54 32.03 45.57 32.03C45.59 32.03 45.6 32.01 45.61 31.98C45.61 31.94 45.63 31.93 45.66 31.93C45.7 31.92 45.71 31.91 45.72 31.88C45.72 31.86 45.74 31.84 45.76 31.84C45.79 31.83 45.81 31.82 45.81 31.79C45.81 31.77 45.83 31.75 45.86 31.75C45.88 31.74 45.9 31.73 45.9 31.7C45.91 31.67 45.92 31.66 45.95 31.66C45.99 31.66 46 31.65 46 31.62C46 31.59 46.01 31.57 46.04 31.57C46.06 31.57 46.08 31.55 46.08 31.54C46.08 31.53 46.09 31.51 46.09 31.5C46.09 31.49 46.11 31.48 46.13 31.48C46.15 31.48 46.17 31.47 46.17 31.45C46.18 31.44 46.18 31.42 46.18 31.41C46.18 31.41 46.2 31.4 46.22 31.39C46.25 31.39 46.27 31.37 46.27 31.34C46.28 31.31 46.29 31.3 46.32 31.3C46.34 31.3 46.35 31.29 46.36 31.25C46.36 31.22 46.37 31.21 46.41 31.2C46.45 31.19 46.46 31.18 46.46 31.16C46.46 31.13 46.48 31.12 46.51 31.11C46.54 31.11 46.56 31.09 46.56 31.06C46.57 31.04 46.58 31.02 46.59 31.02C46.59 31.02 46.61 31.02 46.63 31.02C46.64 31.01 46.65 31 46.65 30.97C46.66 30.95 46.67 30.93 46.7 30.93C46.72 30.93 46.74 30.91 46.75 30.89C46.75 30.86 46.77 30.84 46.79 30.84C46.81 30.84 46.83 30.83 46.83 30.81C46.84 30.8 46.84 30.78 46.84 30.77C46.84 30.77 46.86 30.76 46.88 30.75C46.91 30.75 46.93 30.73 46.93 30.71C46.93 30.68 46.95 30.67 46.97 30.66C47 30.66 47.02 30.64 47.02 30.61C47.03 30.57 47.04 30.56 47.07 30.56C47.11 30.56 47.12 30.55 47.12 30.52C47.12 30.48 47.13 30.47 47.17 30.47C47.2 30.46 47.22 30.45 47.22 30.43C47.22 30.4 47.23 30.39 47.26 30.38C47.29 30.38 47.31 30.36 47.31 30.33C47.32 30.31 47.33 30.29 47.34 30.29C47.35 30.29 47.36 30.29 47.38 30.29C47.39 30.29 47.4 30.27 47.41 30.25C47.41 30.22 47.43 30.21 47.45 30.2C47.48 30.2 47.49 30.18 47.5 30.16C47.5 30.13 47.52 30.12 47.54 30.11C47.57 30.11 47.59 30.09 47.59 30.07C47.59 30.04 47.61 30.03 47.63 30.02C47.66 30.02 47.68 30 47.68 29.98C47.68 29.96 47.7 29.94 47.73 29.94C47.75 29.93 47.77 29.92 47.77 29.88C47.78 29.84 47.79 29.83 47.82 29.83C47.86 29.83 47.87 29.82 47.87 29.79C47.87 29.75 47.88 29.74 47.92 29.74C47.95 29.74 47.97 29.72 47.97 29.7C47.97 29.68 47.98 29.66 48.01 29.65C48.04 29.65 48.06 29.63 48.07 29.61C48.07 29.57 48.12 29.52 48.12 29.55C48.12 29.56 48.13 29.56 48.14 29.56C48.15 29.55 48.16 29.53 48.16 29.51C48.16 29.49 48.18 29.48 48.2 29.47C48.23 29.47 48.25 29.45 48.25 29.43C48.25 29.4 48.27 29.39 48.29 29.38C48.32 29.38 48.34 29.37 48.34 29.36C48.34 29.34 48.34 29.33 48.34 29.32C48.34 29.31 48.36 29.3 48.39 29.3C48.41 29.29 48.43 29.28 48.43 29.25C48.44 29.23 48.45 29.21 48.48 29.21C48.51 29.2 48.52 29.19 48.52 29.15C48.53 29.11 48.54 29.1 48.57 29.1C48.61 29.1 48.62 29.09 48.62 29.06C48.62 29.03 48.63 29.02 48.67 29.01C48.7 29.01 48.72 28.99 48.73 28.97C48.73 28.94 48.75 28.93 48.77 28.92C48.8 28.92 48.81 28.9 48.82 28.88C48.82 28.86 48.83 28.84 48.84 28.83C48.85 28.83 48.87 28.83 48.88 28.83C48.89 28.83 48.91 28.81 48.91 28.79C48.91 28.77 48.93 28.75 48.95 28.75C48.98 28.74 49 28.72 49 28.7C49 28.68 49.02 28.66 49.05 28.66C49.07 28.65 49.09 28.64 49.09 28.63C49.09 28.62 49.09 28.6 49.09 28.59C49.09 28.58 49.11 28.57 49.14 28.57C49.16 28.56 49.18 28.55 49.18 28.52C49.19 28.5 49.2 28.48 49.23 28.48C49.26 28.47 49.27 28.46 49.28 28.42C49.28 28.39 49.29 28.38 49.33 28.38C49.36 28.38 49.37 28.37 49.37 28.33C49.37 28.3 49.38 28.29 49.42 28.28C49.46 28.28 49.47 28.27 49.48 28.24C49.48 28.21 49.5 28.2 49.52 28.19C49.54 28.19 49.57 28.17 49.57 28.15C49.58 28.11 49.63 28.06 49.63 28.09C49.63 28.1 49.64 28.11 49.65 28.1C49.66 28.09 49.66 28.07 49.66 28.05C49.66 28.03 49.68 28.02 49.71 28.02C49.75 28.02 49.76 28.01 49.76 27.98C49.76 27.95 49.76 27.93 49.77 27.93C49.78 27.93 49.8 27.93 49.82 27.92C49.83 27.92 49.84 27.91 49.84 27.9C49.84 27.89 49.84 27.87 49.84 27.86C49.85 27.85 49.87 27.84 49.89 27.84C49.91 27.84 49.93 27.82 49.94 27.79C49.94 27.77 49.96 27.75 49.98 27.75C50.01 27.75 50.02 27.73 50.03 27.7C50.03 27.66 50.04 27.65 50.08 27.65C50.11 27.65 50.12 27.64 50.12 27.6C50.12 27.57 50.13 27.56 50.17 27.55C50.21 27.55 50.22 27.54 50.23 27.51C50.23 27.49 50.25 27.47 50.27 27.47C50.3 27.46 50.32 27.45 50.32 27.42C50.32 27.4 50.34 27.38 50.37 27.38C50.39 27.37 50.41 27.36 50.41 27.33C50.42 27.31 50.43 27.29 50.46 27.29C50.48 27.28 50.5 27.27 50.5 27.24C50.51 27.22 50.52 27.2 50.53 27.2C50.54 27.2 50.55 27.2 50.57 27.2C50.58 27.19 50.59 27.18 50.6 27.15C50.6 27.13 50.62 27.11 50.64 27.11C50.67 27.11 50.68 27.09 50.69 27.06C50.69 27.02 50.7 27.01 50.74 27.01C50.77 27.01 50.78 27 50.78 26.96C50.78 26.93 50.79 26.92 50.83 26.92C50.86 26.92 50.87 26.91 50.87 26.87C50.87 26.85 50.88 26.83 50.9 26.83C50.92 26.83 50.93 26.78 50.93 26.47C50.93 26.15 50.92 26.1 50.9 26.1C50.88 26.1 50.87 26.08 50.87 26.06C50.87 26.02 50.86 26.01 50.83 26.01C50.8 26.01 50.78 26 50.78 25.98C50.78 25.94 50.75 25.92 50.66 25.92C50.61 25.92 50.6 25.92 50.6 25.88C50.59 25.84 50.18 25.81 50.18 25.85" id="b1mMEWUfei"></path></defs><g><g><g><use xlink:href="#a7pZOJb4mE" opacity="1" fill="#ffffff" fill-opacity="1"></use><g><use xlink:href="#a7pZOJb4mE" opacity="1" fill-opacity="0" stroke="#8b959e" stroke-width="1" stroke-opacity="1"></use></g></g><g><use xlink:href="#b1mMEWUfei" opacity="1" fill="#8c949c" fill-opacity="1"></use><g><use xlink:href="#b1mMEWUfei" opacity="1" fill-opacity="0" stroke="#000000" stroke-width="1" stroke-opacity="0"></use></g></g></g></g></svg>