<svg xmlns="http://www.w3.org/2000/svg" viewBox="0 0 520.16 337.68"><defs><style>.cls-1{isolation:isolate;}.cls-2{fill:none;stroke:#8b959e;stroke-linecap:round;stroke-miterlimit:10;stroke-width:20px;fill-rule:evenodd;}</style></defs><title>Ресурс 2</title><g id="Слой_2" data-name="Слой 2"><g id="Layer_1" data-name="Layer 1"><g class="cls-1"><path class="cls-2" d="M250.34,108.89A98.89,98.89,0,1,1,151.45,10,98.88,98.88,0,0,1,250.34,108.89ZM13.47,327.68C11.11,321.32,10,290.4,10,290.4c0-50.66,20.7-102.13,57.9-130.22,21.47,33.64,50.39,47.6,80,47.6,33.95,0,67.2-13.74,84.24-41.64,37.27,28.09,54.78,74.27,54.78,125,0,3.09-1.65,30.37-3.85,36.55"/><path class="cls-2" d="M473.62,108.89A98.9,98.9,0,1,1,374.73,10,98.88,98.88,0,0,1,473.62,108.89ZM259.73,195a130.29,130.29,0,0,1,31.45-34.84c21.47,33.64,50.38,47.6,79.95,47.6,34,0,67.21-13.74,84.25-41.64,37.27,28.09,54.78,74.27,54.78,125,0,3.09-1.65,30.37-3.85,36.55"/></g></g></g></svg>